<svg xmlns="http://www.w3.org/2000/svg" viewBox="0 0 798.1 798.62"><defs><style>.cls-1{fill:#da0404;}.cls-2{fill:#030303;}.cls-3{fill:#020202;}.cls-4{fill:#010101;}.cls-5{fill:#040404;}</style></defs><g id="Calque_2" data-name="Calque 2"><g id="Calque_1-2" data-name="Calque 1"><g id="_2x1P2r" data-name="2x1P2r"><g id="CONTOUR"><path d="M0,379.14a413.64,413.64,0,0,1,26.43-124C76.23,124.86,195.65,27,332.77,5.58,455.51-13.61,565.26,16.64,659.69,97.29,735.3,161.87,780.6,244.58,794,343.25c16.15,119.18-15,225.67-93.32,317C637.37,734,556.58,778.11,460.49,793.62c-12.13,2-24.46,2.71-36.69,4.07a40.55,40.55,0,0,0-4.32.93h-41a43.37,43.37,0,0,0-4.33-.93c-13.87-1.62-27.84-2.66-41.61-4.88-137-22.08-255.37-118.46-305.67-248.33A411.25,411.25,0,0,1,0,419.09ZM13.79,398.9C13.6,611.49,185.52,784,398,784.38c213.09.41,385.72-171.57,386.08-384.63S612.12,14.16,399.1,14C186.33,13.9,14,186.06,13.79,398.9Z"/><path d="M398.78,87.4c173.12-.86,314.37,138.78,315.14,311.53A313.35,313.35,0,0,1,401.47,714.15c-172.42.74-313.61-139-314.41-311.28C86.26,229.32,225.63,88.26,398.78,87.4Zm2,14.07c-165.48-.09-299.51,133.65-299.66,299S234.8,699.94,400.21,700.05s299.5-133.59,299.66-299S566.13,101.55,400.78,101.47Z"/></g><g id="DGI"><path class="cls-1" d="M307.76,254.63c-3.15-9.45-9.79-14.16-18-16.8a149.93,149.93,0,0,0-17-4c-3-.59-4.24-2-4.05-5.05a94,94,0,0,0,0-10.48c-.15-3,1-4.35,4-4a27.1,27.1,0,0,0,3,0c44.6,0,89.21-.51,133.8.22a528.07,528.07,0,0,1,62,5c24.5,3.32,48.12,10.09,69.42,23.51,26.38,16.63,44.86,40,57.53,67.94,31.71,70,33.83,141.2,5.84,212.83-14.61,37.39-39.43,66.46-75,85.64-20.86,11.25-43.9,14.87-67,15.39-49.23,1.1-98.49.89-147.74,1.18-13.48.08-27-.12-40.44.09-4,.06-5.86-.82-5.44-5.19.39-4-1.21-9,.74-11.62,1.64-2.19,7.1-1.57,10.88-2,17.21-2.19,27-11.43,29.95-28.52.57-3.24,1-6.51,1.46-9.7-9.61-2.8-19.12-4.76-28-8.29-54.23-21.59-86.14-61.94-97-118.78-5.92-31.11-3.72-62.22,7.8-91.88,19.41-50,57.43-79.3,107.91-94Zm55.1,294a113.26,113.26,0,0,0,39.46-10.67c27.6-12.82,42.5-33.69,41.59-64.86-.61-21-8.87-31.9-29.16-37.37-4.17-1.13-8.52-1.56-12.69-2.65-1.25-.33-3-1.76-3.13-2.83-.38-3.89-.15-7.84-.15-11.9H526.09a6.45,6.45,0,0,1,.56,1.71c-.14,12.43,2.89,11.49-11,13.89-15.91,2.75-24.48,7.17-27,26.17a107.82,107.82,0,0,0-1,13.9c-.1,27.63,0,55.26,0,82.89v6.62c-4.46,0-8.48-.48-12.34.1-7.81,1.19-12.14-1.68-14.76-9.23-2.52-7.28-6.45-14.06-10-21.59-25.16,22-54,33.7-86.14,37.39.79,14.41,7.6,22.88,21.17,26.71,26.16,7.39,52.36,6.1,78.44-.21a110.11,110.11,0,0,0,47.75-24.95c22.89-20.31,35.44-46.67,43.35-75.53s9.83-58.55,9.09-88.5a271.6,271.6,0,0,0-15.21-84.6c-12.52-35.33-35.84-60.43-71.59-73.59a162.61,162.61,0,0,0-70.08-9.31c-10.59.84-20.76,2.86-30.06,8.15-2.49,1.42-4.67,3.36-8.21,6,22.83,5.73,43.59,12.52,61.9,26.12,2.56-6.48,5-12.12,7-17.9,1.16-3.29,2.85-5,6.5-4.48a15.29,15.29,0,0,0,4.48,0c4.21-.63,6,1.11,7.25,5.25,8.32,28.58,16.93,57.09,25.42,85.63.45,1.51.69,3.09,1.09,4.94-5.47,1.54-10.36,3.21-15.38,4.16a6.48,6.48,0,0,1-5.13-2.2c-4.3-5.48-7.89-11.54-12.32-16.91-15.49-18.79-32-36.57-52.64-50a87.68,87.68,0,0,0-32.73-12.64C362.13,283.4,360.63,537.13,362.86,548.61ZM312,278.46c-16.61,5.39-29.41,14.26-38.75,27.65-36.42,52.21-41.58,109-22.65,168.41,9.27,29.1,28,51.52,56.11,65.15,1.71.83,3.49,1.52,5.29,2.31Z"/><path class="cls-1" d="M363.7,172.35c-.07,15.3-12.54,27.77-27.62,27.61a27.8,27.8,0,0,1,.34-55.59C351.51,144.44,363.76,157,363.7,172.35Z"/></g><g id="TEXT_DGI" data-name="TEXT DGI"><path class="cls-2" d="M409.63,745.11c-2,8.65-4.19,17.28-6,26-.67,3.21-2,4.27-5.3,4.28-3.48,0-5-1.11-5.64-4.58a179.53,179.53,0,0,0-6.37-25.59v29.4h-8.26V732.53a94.84,94.84,0,0,1,11,.16c1.05.12,2.41,2,2.73,3.3,2,8.07,3.69,16.2,5.51,24.3A4.1,4.1,0,0,0,399,763q2.43-10.26,4.87-20.53c2.65-11.09,3-11.27,14.88-9.23V775h-8.17V745.22Z"/><path class="cls-3" d="M150.42,678.13,178,645.21c6.07,5.45,11.93,10.7,17.77,16a6.36,6.36,0,0,1,1.07,1.67c4,7.29,1,17-7.5,24.75-7.71,7-16.15,8.49-23.06,3.49C160.91,687.24,156,682.74,150.42,678.13Zm11.81-.11c4.78,3.34,7.72,9.16,14.69,6.85,5.66-1.88,12.67-10.18,12.73-15.47.07-6.65-5.8-8.48-9.87-12.36Z"/><path class="cls-4" d="M449.53,60l-9-1.27c.22-2.31.42-4.36.62-6.48a11.85,11.85,0,0,1,2.32-.31c4.79.5,9.57,1.06,15.07,1.69-.77,7.4-1.53,14.57-2.3,21.85-3.51.54-6.51,1-6.41-2.69-5.06.68-10,1.76-14.85,1.84-2.44,0-5.15-1.41-7.32-2.82-9.22-6-11-21.88-3.88-32.43,5.91-8.7,19.47-10.93,28.54-4.6A14.53,14.53,0,0,1,459,46.89c-3.95.22-7.44,1.22-10-3.55-3.12-5.79-11.06-6.26-15.89-1.52-4.48,4.4-6.07,14.55-3.06,20.1,2.32,4.29,6.16,6,10.83,5.63C445.28,67.2,448.15,64.8,449.53,60Z"/><path class="cls-3" d="M515,712.49c11.84-.06,21,10.77,21.1,25,.09,11.09-9.23,19.87-21.13,19.92-11.68,0-20.94-10.94-21.14-25.07C493.66,721.17,502.88,712.56,515,712.49Zm11,30.34a14.29,14.29,0,0,0-.21-10.62,47.27,47.27,0,0,0-3.79-7.72c-2.55-4-6.93-5-11.52-3.53-4.79,1.56-8,5.15-7.31,10a39.68,39.68,0,0,0,5,14.22c2.46,4.2,7.11,5.22,11.9,3.41A9.7,9.7,0,0,0,526,742.83Z"/><path class="cls-4" d="M656.15,192.14,649.61,185c2.37-2.53,4.44-5.07,6.84-7.23,3.3-3,3.4-5.82.41-8.95l-6.28-6.59L638.67,173l-5.95-6.34,30.84-28.4c5.47,6.07,10.84,11.7,15.81,17.67,3.13,3.75,3.43,8.27,1,12.61-2.68,4.91-7,6.79-11.12,6.27ZM656,157.25c2.81,3,5.35,5.75,8,8.42,2.24,2.25,4.67,2.26,7,.15s2.84-4.59.9-7c-2.43-3.07-5.19-5.88-8-9Z"/><path class="cls-4" d="M327.78,52.09c1.57,8.79,3.14,17.57,4.8,26.81l-8.11,1.53c-2.52-13.75-5-27.06-7.4-40.28,7.23-3.59,8.45-3.32,13.22,2.39A170.37,170.37,0,0,0,347,60.47c-1.5-8.41-3-16.82-4.59-25.7l8.12-1.56,7.39,40.49c-5.8,3-9.64,1.87-13.23-3-4.9-6.65-10.55-12.74-15.88-19.06Z"/><path class="cls-4" d="M81.42,257.9c7.72-4.49,13.29,3,20.5,2.05-.47,1.54-.92,2.72-1.2,3.93-1.1,4.73-3.83,5.72-8,3.65-1-.51-2.2-.78-3.24-1.28-4.44-2.11-7.3-.74-8.91,3.81-.88,2.48-2,4.9-3.14,7.8l14.76,6.42L89,292.33,50.23,276.38c3.27-7.72,6.1-15,9.42-22a10.32,10.32,0,0,1,10.59-6.11C76,248.65,79.85,251.61,81.42,257.9Zm-10.9,17.36c1.61-3.93,3.1-7.21,4.3-10.6,1.07-3.05.25-5.57-2.95-6.85s-5.55-.15-6.94,2.8c-1.53,3.25-2.8,6.62-4.36,10.37Z"/><path class="cls-4" d="M566.37,115.44c-6-1.51-8.79-4.3-8.55-10.59a121.17,121.17,0,0,0-2.16-25c-4.08,7.87-8.15,15.74-12.47,24.06l-7.43-3.62,18.72-36.78C563,66.1,563.1,66.29,563.42,74a204.78,204.78,0,0,0,2.1,24.54c4-7.7,8-15.4,12.23-23.68l7.39,3.77C578.81,91,572.65,103.13,566.37,115.44Z"/><path class="cls-4" d="M29.08,381.19c.78-7.43,1.17-14.22,2.28-20.89S37,349,43.71,348.41a46.64,46.64,0,0,1,17.52,1.76c8.83,2.79,12,8.85,11.12,18.16-.5,5.43-1.08,10.84-1.7,17ZM64,375.88c.66-6.09,3.12-11.8-2.81-16-4.81-3.45-15.45-4.26-19.45-1.29-5.09,3.79-3.44,9.35-4.2,14.68Z"/><path class="cls-4" d="M274,52.69c11.48-.06,20.81,10.93,20.91,24.61.07,10.83-9.25,19.47-21,19.42-11.44,0-20.64-11.15-20.62-24.9C253.3,61.12,262.35,52.74,274,52.69Zm12,28.49a8.42,8.42,0,0,0-.16-6.5,62.41,62.41,0,0,0-5.22-10.36c-2.67-3.88-7-4.84-11.59-3.06-4.71,1.85-7.62,5.62-6.71,10.43a39.11,39.11,0,0,0,5.51,13.48c2.57,4,7.13,4.69,11.6,2.86A11.45,11.45,0,0,0,286,81.18Z"/><path class="cls-3" d="M199.61,716.08l21.71-36.72,27,15.93-3.83,6.63-19.36-11.19-4.33,7.32,17.6,10.49-3.9,6.58-17.65-10.25-5.54,9,20.16,12-4,6.6Z"/><path class="cls-3" d="M618.28,667.52c-3.24,2.24-5.25,6-10.3,3.24-3.12-1.73-9.83,2.72-10.45,6.44a4.15,4.15,0,0,0,5.86,4.86c4.07-1.4,8-3.36,12-4.89,6.58-2.5,10.8-1.56,14.34,3,3.83,4.89,4.41,11.19-.05,16a43.37,43.37,0,0,1-13.46,9.64c-5.24,2.39-10.35.39-14.41-4.4,3-2.9,4.93-6.45,10.2-3.46,3.55,2,11.56-3.67,12.21-7.9.55-3.59-2.21-6-6-4.68s-7.65,3.2-11.52,4.72c-7.11,2.8-11.65,1.67-15.37-3.71-3.56-5.15-3.08-11.38,1.6-16.42,4-4.36,8.72-7.75,15.05-7.71A11.94,11.94,0,0,1,618.28,667.52Z"/><path class="cls-3" d="M254.25,731.25c3.95,1.28,7.74,1.17,8.06,6.71.24,4.23,8.9,8.13,13,6.59,3.29-1.23,4.19-4.61,1.47-7.07a108.81,108.81,0,0,0-9.57-7.16c-7-5.07-8.65-9.74-5.69-16.06s9-8.65,16.93-6.46c10.87,3,15.78,10.09,13.13,19.48-3.56-1.06-7.57-.67-8.08-6.38-.34-3.91-7.57-7.18-11.35-5.88-3.47,1.19-4.14,4.94-1.09,7.41,3.22,2.62,6.78,4.82,10.12,7.29,6.28,4.65,7.84,9.09,5.34,14.91-2.59,6-8.14,9.31-15.08,7.59a41.92,41.92,0,0,1-13.4-6.09C253.2,742.78,252.25,737.53,254.25,731.25Z"/><path class="cls-4" d="M112.55,226c4.25-6.58,8.18-12.68,12.42-19.27l6.45,4-17.13,26.81L79,215,95.55,189l6.49,4L90.29,211.55l7,4.55,11-16.86,6.33,4-10.76,17.06Z"/><path class="cls-4" d="M638.53,115.54l-4.7,6-17.36-13.07L611.24,115l16,12.32-4.49,6-16.12-12-6.4,8.15,18.24,14-4.56,6.09-25.31-19.29,25.33-33.32Z"/><path class="cls-4" d="M760,337.46c-1.71-7.28-3.3-14-5-21.32l-8.13,1.54c1.41,6.69,2.74,13,4.18,19.77l-7.28,1.61c-1.52-6.62-3-12.85-4.48-19.54L729,321.7c1.65,7.49,3.25,14.68,5,22.37l-7.34,1.73c-2.35-10.42-4.59-20.39-7-30.95l40.75-9.22c2.26,9.95,4.42,19.44,6.74,29.66Z"/><path class="cls-3" d="M512.54,91,482.1,81.71c4.09-13.57,8-26.55,12.09-40l29.41,8.88c-.76,2.52-1.39,4.63-2.17,7.21L500.6,51.6c-.87,2.63-1.67,5-2.62,7.94l19.28,6c-.8,2.54-1.47,4.66-2.26,7.14L495.8,67c-1.06,3.43-2,6.38-3,9.87l21.77,6.79Z"/><path class="cls-4" d="M690.5,242.28c-1.12-1.67-1.94-3.12-3-4.38-1.92-2.32-2-4.47.43-6.38,3.43-2.66,3-5.38.46-8.37a16.24,16.24,0,0,1-2.4-3.78c-1.61-3.57-3.82-5-7.83-3.39-5.9,2.3-5.89-3.5-8.57-6.48a29.14,29.14,0,0,1,3.46-1.31c12-2.74,24-5.21,35.89-8.26,4.26-1.1,5,1.69,6.71,4s2.45,4.18.19,6.94c-8.12,9.87-15.91,20-23.83,30A16.16,16.16,0,0,1,690.5,242.28Zm.15-29.43c2.09,3.17,3.73,5.66,5.65,8.59l9.55-11.38-.58-.95Z"/><path class="cls-3" d="M453.2,756.27c.79,5.16,1.5,9.85,2.28,15l-8.82,1.5c-2.33-14-4.6-27.62-7.05-42.35,8.36-1,16.33-2.42,24.34-2.67,5.66-.17,9.84,5.48,10.38,12.11.58,7.18-3,12.66-9.62,14.34C461.2,755,457.57,755.48,453.2,756.27Zm-1.27-7.37c4.79-1.7,10.51.24,12.9-5.25.77-1.77,0-5.44-1.37-6.68-4-3.55-8.6-.87-13.53-.06C450.6,740.94,451.21,744.59,451.93,748.9Z"/><path class="cls-4" d="M160.2,155.25a16.15,16.15,0,0,1,1.73,20.23c-4.79,7.6-13,11.16-21,8.56a27.78,27.78,0,0,1-17.7-16.42c-3.17-7.76-.34-16.21,6.77-21.67,6.34-4.88,13.58-5.11,19.91-.43-2.46,3.5-4.34,6.61-10,5.27s-10.54,5.85-9,11.91c1.49,5.69,9.25,12.64,15,13.4s12.27-5.11,10.23-10.29C153.93,160.22,156.85,158,160.2,155.25Z"/><path class="cls-3" d="M570.44,686l3.61,6.78-11.14,6.09c5.41,10.21,10.66,20.12,16.19,30.54L571.3,734c-5.49-10.23-10.86-20.23-16.5-30.72L543.62,709l-3.75-6.7Z"/><path class="cls-3" d="M204,137.07l-7,5.44c-6.93-9-13.74-17.91-20.81-27.11l-9.94,7.45-4.69-5.94,27-20.69,4.68,5.83L183.37,110Z"/><path class="cls-3" d="M739.73,248.2l3.41,8.26-31.38,13c2.65,6.53,5.13,12.61,7.75,19.06l-7.11,3-11.3-27.43Z"/><path class="cls-5" d="M347.85,728.43l9,1.1-6.2,42.07-9-1.25C343.72,756.28,345.75,742.58,347.85,728.43Z"/><path class="cls-2" d="M38.8,316.2c.8-3.05,1.43-5.42,2.27-8.61l40.47,10.09c-.76,3-1.42,5.61-2.19,8.66Z"/><path class="cls-3" d="M212.65,81.19l7.79-4.44c6.92,12.12,13.71,24,20.7,36.23l-7.72,4.58Z"/></g></g></g></g></svg>